<svg width="50" height="50" viewBox="0 0 50 50" fill="none" xmlns="http://www.w3.org/2000/svg">
<mask id="mask0_2037_1048" style="mask-type:luminance" maskUnits="userSpaceOnUse" x="1" y="1" width="48" height="48">
<path d="M1.47119 1.47168H48.5212V48.5217H1.47119V1.47168Z" fill="white"/>
</mask>
<g mask="url(#mask0_2037_1048)">
<path d="M48.5212 41.987C48.5212 45.5968 45.5963 48.5217 41.9866 48.5217H8.00596C4.39749 48.5217 1.47119 45.5968 1.47119 41.987V8.00644C1.47119 4.39668 4.39749 1.47168 8.00596 1.47168H41.9866C45.5963 1.47168 48.5212 4.39668 48.5212 8.00644V41.987Z" fill="#673AB7"/>
</g>
<path d="M36.7983 27.0877C35.9488 25.9114 34.7203 25.1011 33.139 24.6699C33.139 24.6699 34.472 24.1863 35.6744 22.3828C36.3932 21.2326 36.7591 19.8472 36.7591 18.2266C36.7591 15.4167 35.7397 13.2602 33.7009 11.7834C31.6621 10.3066 29.3619 9.31323 25.4541 9.31323H13.2341V40.6799H26.8656C30.5642 40.6537 33.3481 39.8566 35.2431 38.3274C37.1251 36.7722 38.0662 34.472 38.0662 31.4006C38.0662 29.7016 37.6479 28.264 36.7983 27.0877ZM21.0758 14.5411C21.0758 14.5411 26.5258 14.5411 26.6304 14.5411C28.6169 14.5411 30.2245 16.1485 30.2245 18.1351C30.2245 20.1217 28.6169 21.7292 26.6304 21.7292C26.5258 21.7292 21.0758 21.7292 21.0758 21.7292V14.5411ZM27.6106 35.4522H21.0758V27.6105H27.6106C29.7801 27.6105 31.5314 29.3618 31.5314 31.5313C31.5314 33.7009 29.7801 35.4522 27.6106 35.4522Z" fill="white"/>
</svg>
