<svg width="50" height="50" viewBox="0 0 50 50" fill="none" xmlns="http://www.w3.org/2000/svg">
<mask id="mask0_2037_1204" style="mask-type:luminance" maskUnits="userSpaceOnUse" x="3" y="1" width="44" height="48">
<path d="M3.77222 1.28198H46.2222V48.707H3.77222V1.28198Z" fill="white"/>
</mask>
<g mask="url(#mask0_2037_1204)">
<path d="M46.2158 1.28198H3.77856L7.52297 43.7149L24.9972 48.707L42.4714 43.7149L46.2158 1.28198Z" fill="#0277BD"/>
</g>
<path d="M24.9978 5.02686V44.8388L38.9771 40.8451L42.0975 5.02686H24.9978Z" fill="#039BE5"/>
<path d="M36.356 11.2666H24.9978V16.2587H31.1138L30.7393 21.2507H24.9978V26.2429H30.4897L30.1153 31.8591L24.9978 33.6062V38.848L34.8582 35.6031L35.7319 21.2507L36.356 11.2666Z" fill="white"/>
<path d="M24.9977 11.2666V16.2587H13.8891L13.5146 11.2666H24.9977ZM19.2562 21.2507L19.5058 26.2429H24.9977V21.2507H19.2562ZM19.7554 28.7389H14.7628L15.1373 35.6031L24.9977 38.848V33.6062L19.8803 31.8591L19.7554 28.7389Z" fill="#EEEEEE"/>
</svg>
