<svg width="34" height="50" viewBox="0 0 34 50" fill="none" xmlns="http://www.w3.org/2000/svg">
<path d="M16.6541 25.0096C16.6541 20.416 20.3781 16.6731 24.9905 16.6731C29.5841 16.6731 33.327 20.3971 33.327 25.0096C33.327 29.6031 29.603 33.3461 24.9905 33.3461C20.397 33.3461 16.6541 29.6031 16.6541 25.0096Z" fill="#1ABCFE"/>
<path d="M0 41.6636C0 37.0701 3.724 33.3271 8.33648 33.3271H16.673V41.6636C16.673 46.2572 12.9489 50.0001 8.33648 50.0001C3.724 50.0001 0 46.2761 0 41.6636Z" fill="#0ACF83"/>
<path d="M16.6541 0.0189036V16.673H24.9905C29.5841 16.673 33.327 12.9489 33.327 8.33648C33.327 3.74291 29.603 0 24.9905 0H16.6541V0.0189036Z" fill="#FF7262"/>
<path d="M0 8.35552C0 12.9491 3.724 16.692 8.33648 16.692H16.673V0.019043H8.33648C3.724 0.019043 0 3.74305 0 8.35552Z" fill="#F24E1E"/>
<path d="M0 25.0096C0 29.6031 3.724 33.3461 8.33648 33.3461H16.673V16.6731H8.33648C3.724 16.6731 0 20.416 0 25.0096Z" fill="#A259FF"/>
</svg>
