<svg width="50" height="50" viewBox="0 0 50 50" fill="none" xmlns="http://www.w3.org/2000/svg">
<path d="M49.0579 22.7726L27.2271 0.942937C25.9706 -0.314312 23.9315 -0.314312 22.6735 0.942937L18.1402 5.47622L23.8909 11.2269C25.2272 10.7753 26.7597 11.0783 27.8249 12.1435C28.8953 13.2156 29.196 14.7612 28.7335 16.1018L34.2756 21.6441C35.6165 21.1822 37.1636 21.481 38.2345 22.5537C39.7312 24.0498 39.7312 26.4747 38.2345 27.9718C36.7374 29.4691 34.3125 29.4691 32.8147 27.9718C31.6889 26.8448 31.4107 25.1914 31.9807 23.8045L26.8122 18.636L26.8116 32.2373C27.1863 32.4225 27.5285 32.6672 27.8249 32.9619C29.3216 34.458 29.3216 36.8831 27.8249 38.3813C26.3278 39.8778 23.9018 39.8778 22.4069 38.3813C20.9102 36.8831 20.9102 34.4582 22.4069 32.9621C22.7655 32.6032 23.1918 32.319 23.661 32.1259V18.3979C23.1911 18.2061 22.7646 17.9218 22.4069 17.5618C21.2729 16.4294 21.0002 14.7655 21.5813 13.3731L15.9124 7.70361L0.943377 22.6717C-0.314459 23.9301 -0.314459 25.9694 0.943377 27.2268L22.7746 49.0569C24.0315 50.3144 26.0702 50.3144 27.3286 49.0569L49.0577 27.3282C50.3152 26.0704 50.3154 24.0299 49.0579 22.7726Z" fill="#DE4C36"/>
</svg>
