<svg width="71" height="71" viewBox="0 0 71 71" fill="none" xmlns="http://www.w3.org/2000/svg">
<mask id="mask0_2036_450" style="mask-type:luminance" maskUnits="userSpaceOnUse" x="6" y="2" width="60" height="67">
<path d="M6.39185 2.03931H65.3318V68.9593H6.39185V2.03931Z" fill="white"/>
</mask>
<g mask="url(#mask0_2036_450)">
<path d="M11.7422 62.2482L6.375 2.07031H65.3484L59.977 62.2399L35.824 68.9302L11.7422 62.2482Z" fill="#E44D26"/>
</g>
<path d="M55.3769 58.408L59.9689 6.99121H35.8621V63.8175L55.3769 58.408Z" fill="#F16529"/>
<path d="M35.8367 14.3713H17.3479L19.3398 36.6906H35.8618V29.3107H26.0928L25.4176 21.7532H35.8618V14.3713H35.8367ZM35.8618 48.454L35.8305 48.4624L27.608 46.2436L27.0856 40.3576H19.6699L20.7046 51.9457L35.8283 56.1245L35.8618 56.1139V48.454Z" fill="#EBEBEB"/>
<path d="M35.8367 36.6906H44.9285L44.0925 46.2602L35.8577 48.4812V56.1599L50.9939 51.9664L53.0213 29.3065H35.8619L35.8367 36.6906ZM54.1541 16.3521L54.3297 14.3713H35.8325V21.7511H53.665L53.8114 20.0922L54.1541 16.3521Z" fill="white"/>
</svg>
