<svg width="50" height="50" viewBox="0 0 50 50" fill="none" xmlns="http://www.w3.org/2000/svg">
<mask id="mask0_2037_802" style="mask-type:luminance" maskUnits="userSpaceOnUse" x="1" y="1" width="48" height="48">
<path d="M1.53101 1.53101H48.481V48.481H1.53101V1.53101Z" fill="white"/>
</mask>
<g mask="url(#mask0_2037_802)">
<path d="M1.53101 1.53101H48.481V48.481H1.53101V1.53101Z" fill="#FFD600"/>
</g>
<path d="M32.2284 36.6742C33.1309 38.14 34.1116 39.5446 36.1891 39.5446C37.9341 39.5446 38.8496 38.6774 38.8496 37.4775C38.8496 36.0416 37.9028 35.5317 35.9831 34.6958L34.9306 34.2471C31.8931 32.9587 29.8731 31.3441 29.8731 27.9337C29.8731 24.7906 32.2792 22.3988 36.0391 22.3988C38.7166 22.3988 40.6403 23.326 42.0279 25.7544L38.7493 27.8502C38.028 26.5617 37.2481 26.0544 36.0391 26.0544C34.8054 26.0544 34.0243 26.8329 34.0243 27.8502C34.0243 29.1074 34.8067 29.6161 36.6129 30.3946L37.6654 30.8433C41.2453 32.3678 43.2642 33.9249 43.2642 37.4253C43.2642 41.1971 40.2854 43.2641 36.2869 43.2641C32.3757 43.2641 30.1547 41.3014 28.9184 38.8717L32.2284 36.6742ZM17.1183 36.7811C17.7782 37.9627 18.7812 38.8717 20.2235 38.8717C21.6033 38.8717 22.3976 38.3265 22.3976 36.2072V22.3975H26.7443V36.8751C26.7443 41.2661 24.1973 43.2641 20.4778 43.2641C17.117 43.2641 14.6912 40.987 13.7026 38.8717L17.1183 36.7811Z" fill="#000001"/>
</svg>
