<svg width="50" height="50" viewBox="0 0 50 50" fill="none" xmlns="http://www.w3.org/2000/svg">
<mask id="mask0_2037_1181" style="mask-type:luminance" maskUnits="userSpaceOnUse" x="1" y="2" width="48" height="47">
<path d="M1.93359 2.96729H48.7897V48.7006H1.93359V2.96729Z" fill="white"/>
</mask>
<g mask="url(#mask0_2037_1181)">
<path fill-rule="evenodd" clip-rule="evenodd" d="M45.0977 38.3435C42.55 38.2725 40.5734 38.5336 38.9169 39.2304C38.44 39.4221 37.6745 39.4221 37.6116 40.0224C37.8665 40.2743 37.8973 40.6866 38.1207 41.0358C38.5027 41.6694 39.1725 42.5231 39.7773 42.9659L41.8159 44.4228C43.0583 45.182 44.46 45.6255 45.6703 46.3855C46.3715 46.829 47.072 47.3989 47.7732 47.8743C48.1302 48.1277 48.3466 48.5399 48.7928 48.6975V48.6017C48.57 48.3178 48.5059 47.9062 48.2837 47.5884L47.327 46.6708C46.4036 45.436 45.2562 44.3588 44.0138 43.4733C42.9941 42.7764 40.7648 41.8269 40.3506 40.6561L40.2879 40.5851C40.9876 40.5142 41.8159 40.2679 42.4857 40.0777C43.5697 39.7938 44.5564 39.8563 45.6703 39.5718L47.2005 39.1282V38.8445C46.6272 38.2746 46.213 37.5146 45.6082 36.9767C43.9839 35.5837 42.1987 34.222 40.3508 33.0824C39.3631 32.4493 38.0887 32.0371 37.0375 31.4998C36.6542 31.3097 36.0178 31.2147 35.7951 30.8981C35.2203 30.2027 34.9026 29.2837 34.4884 28.4599L31.8764 22.9511C31.303 21.7164 30.9517 20.4816 30.252 19.342C26.9702 13.9596 23.4014 10.6989 17.9219 7.50062C16.7436 6.83564 15.3419 6.54971 13.8518 6.20205L11.4626 6.07432C10.9521 5.85283 10.443 5.25114 9.99662 4.96585C8.18086 3.82627 3.4974 1.35674 2.15859 4.61103C1.29818 6.66898 3.43307 8.69489 4.15794 9.7402C4.70052 10.4682 5.40039 11.2914 5.78372 12.1146C5.99805 12.6524 6.0694 13.223 6.29284 13.7928C6.80195 15.1858 7.28047 16.7377 7.94948 18.0363C8.30651 18.7013 8.68138 19.3988 9.1276 19.9998C9.38255 20.3547 9.82878 20.5065 9.92383 21.0763C9.47747 21.71 9.44688 22.6588 9.19193 23.4514C8.0444 27.0293 8.49076 31.4616 10.1152 34.0957C10.6258 34.8869 11.8289 36.629 13.4612 35.9634C14.8951 35.3936 14.5751 33.589 14.9893 32.0058C15.0857 31.6261 15.0214 31.3729 15.212 31.1188V31.1898L16.5188 33.8175C17.5063 35.3687 19.2271 36.9838 20.6602 38.061C21.4242 38.6308 22.0297 39.613 22.9852 39.9606V39.8648H22.9223C22.731 39.581 22.4439 39.4534 22.1889 39.2319C21.6156 38.6621 20.9786 37.9652 20.5324 37.3323C19.1951 35.5596 18.0168 33.5961 16.965 31.5702C16.4544 30.5888 16.0082 29.5122 15.5954 28.5308C15.4027 28.1505 15.4027 27.5799 15.0849 27.3912C14.6065 28.0867 13.9068 28.6898 13.5547 29.5442C12.9492 30.9052 12.8863 32.5834 12.6637 34.3248C12.535 34.3569 12.5922 34.3248 12.535 34.3958C11.5168 34.1432 11.1655 33.0972 10.7836 32.2117C9.82813 29.9635 9.66823 26.3544 10.4965 23.7579C10.7193 23.0931 11.676 21.0032 11.2941 20.3703C11.1013 19.7685 10.4658 19.4208 10.1145 18.9453C9.70039 18.3436 9.25547 17.5842 8.96849 16.9194C8.20443 15.1453 7.8224 13.1832 6.99336 11.4099C6.6099 10.5867 5.94167 9.73161 5.39961 8.97236C4.79414 8.11728 4.12656 7.51546 3.64805 6.50283C3.4888 6.14801 3.26602 5.5846 3.52096 5.20426C3.58385 4.95101 3.71237 4.84945 3.96589 4.79268C4.37995 4.43786 5.55964 4.88773 5.9737 5.07653C7.15195 5.55205 8.13945 5.99476 9.12695 6.65895C9.57318 6.97549 10.0517 7.57718 10.625 7.73617H11.2948C12.3145 7.95765 13.4605 7.80713 14.4152 8.09098C16.1039 8.63031 17.6327 9.4208 19.0036 10.2767C23.1766 12.9044 26.6182 16.6405 28.9431 21.1054C29.3251 21.8334 29.4844 22.4984 29.8357 23.2584C30.5055 24.8103 31.3337 26.3928 32.0014 27.9135C32.6712 29.4015 33.3081 30.9222 34.2635 32.157C34.7419 32.8218 36.6527 33.1696 37.5124 33.5181C38.15 33.8019 39.1368 34.0574 39.7117 34.405C40.7941 35.07 41.8773 35.8299 42.8964 36.558C43.4055 36.9369 44.9992 37.7289 45.0941 38.3605L45.0977 38.3435ZM12.6086 10.8302C12.1665 10.8263 11.7315 10.879 11.3034 10.9884V11.0593H11.3661C11.6211 11.566 12.0673 11.9144 12.3858 12.3579L13.1191 13.878L13.182 13.807C13.6283 13.4905 13.8517 12.9838 13.8517 12.2246C13.6604 12.0031 13.6289 11.7811 13.4698 11.5596C13.2784 11.2432 12.8642 11.0842 12.6086 10.8316V10.8302Z" fill="#00678C"/>
</g>
</svg>
