<svg width="99" height="50" viewBox="0 0 99 50" fill="none" xmlns="http://www.w3.org/2000/svg">
<path d="M98.6716 25C98.6716 25.4091 98.6516 25.818 98.612 26.2266C98.5724 26.6352 98.513 27.0433 98.4341 27.4505C98.3549 27.8577 98.2559 28.2635 98.1374 28.6683C98.0192 29.073 97.8811 29.4759 97.7236 29.8773C97.566 30.2785 97.3892 30.6777 97.1929 31.0745C96.9968 31.4713 96.7815 31.8656 96.547 32.2571C96.3127 32.6487 96.0595 33.0369 95.7875 33.4221C95.5156 33.8074 95.225 34.189 94.9159 34.5671C94.6071 34.9452 94.2799 35.3188 93.9348 35.6889C93.5895 36.0588 93.2265 36.4239 92.846 36.785C92.4654 37.1457 92.0676 37.5015 91.6524 37.8526C91.2374 38.2035 90.8055 38.5491 90.357 38.8893C89.9083 39.2294 89.4436 39.5637 88.9627 39.8923C88.4815 40.2212 87.9849 40.5434 87.4729 40.8596C86.9607 41.1761 86.4333 41.4857 85.891 41.789C85.3488 42.092 84.7923 42.3882 84.2215 42.6777C83.6504 42.967 83.0658 43.2491 82.4677 43.5238C81.8694 43.7985 81.2582 44.0657 80.634 44.3253C80.0098 44.5849 79.3736 44.8364 78.7249 45.0801C78.0766 45.324 77.4167 45.5593 76.7452 45.7867C76.074 46.0138 75.3918 46.2327 74.6995 46.4431C74.0068 46.6534 73.3046 46.855 72.5924 47.048C71.8803 47.2407 71.1593 47.4247 70.4295 47.5996C69.6995 47.7747 68.9618 47.9402 68.2158 48.097C67.4698 48.2534 66.7167 48.4008 65.9564 48.5386C65.1962 48.6763 64.4298 48.8047 63.6572 48.9235C62.8845 49.0423 62.1067 49.1512 61.3233 49.2507C60.5402 49.35 59.7527 49.4396 58.9608 49.5196C58.1689 49.5994 57.3734 49.6692 56.5749 49.7294C55.7762 49.7894 54.9749 49.8394 54.1715 49.8796C53.368 49.9197 52.5629 49.9497 51.7565 49.9698C50.95 49.9898 50.1433 50 49.3357 50C48.5284 50 47.7214 49.9898 46.9149 49.9698C46.1084 49.9497 45.3036 49.9197 44.4999 49.8796C43.6964 49.8394 42.8955 49.7894 42.0967 49.7294C41.2979 49.6692 40.5027 49.5994 39.7108 49.5196C38.9189 49.4396 38.1315 49.35 37.3481 49.2507C36.565 49.1512 35.7871 49.0423 35.0145 48.9235C34.2418 48.8047 33.4752 48.6763 32.7149 48.5386C31.9549 48.4008 31.2018 48.2534 30.4558 48.097C29.7099 47.9402 28.9719 47.7747 28.2421 47.5996C27.5121 47.4247 26.7911 47.2407 26.079 47.048C25.3671 46.855 24.6645 46.6534 23.9722 46.4431C23.2795 46.2327 22.5976 46.0138 21.9262 45.7867C21.255 45.5593 20.5951 45.324 19.9464 45.0801C19.2981 44.8364 18.6615 44.5849 18.0374 44.3253C17.4135 44.0657 16.8022 43.7985 16.2039 43.5238C15.6056 43.2491 15.021 42.967 14.4502 42.6777C13.8791 42.3882 13.3226 42.092 12.7803 41.789C12.2381 41.4857 11.711 41.1761 11.1987 40.8596C10.6865 40.5434 10.1899 40.2212 9.70898 39.8923C9.22807 39.5637 8.7631 39.2294 8.31464 38.8893C7.86589 38.5491 7.4342 38.2035 7.01901 37.8526C6.60408 37.5015 6.20621 37.1457 5.82539 36.785C5.44484 36.4239 5.08188 36.0588 4.7368 35.6889C4.39145 35.3188 4.06452 34.9452 3.75546 34.5671C3.4464 34.189 3.15604 33.8074 2.8841 33.4221C2.61188 33.0369 2.35864 32.6487 2.12437 32.2571C1.8901 31.8656 1.67481 31.4713 1.47848 31.0745C1.28243 30.6777 1.10563 30.2785 0.948076 29.8773C0.790521 29.4759 0.652489 29.073 0.53398 28.6683C0.415471 28.2635 0.316758 27.8577 0.237569 27.4505C0.158379 27.0433 0.098987 26.6352 0.0593922 26.2266C0.0197974 25.818 0 25.4091 0 25C0 24.5909 0.0197974 24.182 0.0593922 23.7734C0.098987 23.3648 0.158379 22.9567 0.237569 22.5495C0.316758 22.1423 0.415471 21.7365 0.53398 21.3317C0.652489 20.927 0.790521 20.5241 0.948076 20.1227C1.10563 19.7215 1.28243 19.3223 1.47848 18.9255C1.67481 18.5287 1.8901 18.1344 2.12437 17.7429C2.35864 17.3513 2.61188 16.9631 2.8841 16.5779C3.15604 16.1926 3.4464 15.811 3.75546 15.4329C4.06452 15.0548 4.39145 14.6812 4.7368 14.311C5.08188 13.9412 5.44484 13.5761 5.82539 13.215C6.20621 12.8543 6.60408 12.4985 7.01901 12.1474C7.4342 11.7965 7.86589 11.4509 8.31464 11.1107C8.7631 10.7706 9.22807 10.4363 9.70898 10.1077C10.1899 9.77882 10.6865 9.45656 11.1987 9.14035C11.711 8.82387 12.2381 8.51426 12.7803 8.21097C13.3226 7.90796 13.8791 7.61183 14.4502 7.32229C15.021 7.03303 15.6056 6.75119 16.2039 6.47623C16.8022 6.20154 17.4135 5.93427 18.0374 5.67471C18.6615 5.41514 19.2981 5.16355 19.9464 4.91993C20.5951 4.67604 21.255 4.44067 21.9262 4.21327C22.5976 3.98615 23.2795 3.76728 23.9722 3.55693C24.6645 3.34659 25.3671 3.14504 26.079 2.95201C26.7911 2.75926 27.5121 2.57531 28.2421 2.40044C28.9719 2.22556 29.7099 2.05976 30.4558 1.90303C31.2018 1.74657 31.9549 1.59919 32.7149 1.46143C33.4752 1.32368 34.2418 1.19527 35.0145 1.07648C35.7871 0.957699 36.565 0.848814 37.3481 0.749277C38.1315 0.650015 38.9189 0.560377 39.7108 0.480362C40.5027 0.400622 41.2979 0.330782 42.0967 0.270565C42.8955 0.210622 43.6964 0.160579 44.4999 0.120434C45.3036 0.0802895 46.1084 0.0503184 46.9149 0.030246C47.7214 0.0101737 48.5284 0 49.3357 0C50.1433 0 50.95 0.0101737 51.7565 0.030246C52.5629 0.0503184 53.368 0.0802895 54.1715 0.120434C54.9749 0.160579 55.7762 0.210622 56.5749 0.270565C57.3734 0.330782 58.1689 0.400622 58.9608 0.480362C59.7527 0.560377 60.5402 0.650015 61.3233 0.749277C62.1067 0.848814 62.8845 0.957699 63.6572 1.07648C64.4298 1.19527 65.1962 1.32368 65.9564 1.46143C66.7167 1.59919 67.4698 1.74657 68.2158 1.90303C68.9618 2.05976 69.6995 2.22556 70.4295 2.40044C71.1593 2.57531 71.8803 2.75926 72.5924 2.95201C73.3046 3.14504 74.0068 3.34659 74.6995 3.55693C75.3918 3.76728 76.074 3.98615 76.7452 4.21327C77.4167 4.44067 78.0766 4.67604 78.7249 4.91993C79.3736 5.16355 80.0098 5.41514 80.634 5.67471C81.2582 5.93427 81.8694 6.20154 82.4677 6.47623C83.0658 6.75119 83.6504 7.03303 84.2215 7.32229C84.7923 7.61183 85.3488 7.90796 85.891 8.21097C86.4333 8.51426 86.9607 8.82387 87.4729 9.14035C87.9849 9.45656 88.4815 9.77882 88.9627 10.1077C89.4436 10.4363 89.9083 10.7706 90.357 11.1107C90.8055 11.4509 91.2374 11.7965 91.6524 12.1474C92.0676 12.4985 92.4654 12.8543 92.846 13.215C93.2265 13.5761 93.5895 13.9412 93.9348 14.311C94.2799 14.6812 94.6071 15.0548 94.9159 15.4329C95.225 15.811 95.5156 16.1926 95.7875 16.5779C96.0595 16.9631 96.3127 17.3513 96.547 17.7429C96.7815 18.1344 96.9968 18.5287 97.1929 18.9255C97.3892 19.3223 97.566 19.7215 97.7236 20.1227C97.8811 20.5241 98.0192 20.927 98.1374 21.3317C98.2559 21.7365 98.3549 22.1423 98.4341 22.5495C98.513 22.9567 98.5724 23.3648 98.612 23.7734C98.6516 24.182 98.6716 24.5909 98.6716 25Z" fill="#6181B6"/>
<path d="M59.3232 33.1053L61.7701 20.5051C62.3315 17.6559 61.8501 15.529 60.4062 14.2048C59.0023 12.9207 56.5958 12.2787 53.0661 12.2787H48.8143L50.0176 6.01859C50.0577 5.77799 50.0176 5.53713 49.8573 5.3364C49.6967 5.13595 49.4962 5.05566 49.2556 5.05566H43.3994C42.9983 5.05566 42.6774 5.3364 42.5971 5.6977L39.9899 19.0604C39.7493 17.5355 39.1878 16.2514 38.2252 15.2082C36.5003 13.2419 33.8131 12.2385 30.163 12.2385H18.8919C18.4907 12.2385 18.1699 12.5196 18.0898 12.8806L12.8353 40.0074C12.7951 40.248 12.8353 40.4889 12.9959 40.6896C13.1562 40.8901 13.3566 40.9704 13.5975 40.9704H19.4935C19.8947 40.9704 20.2156 40.6896 20.2959 40.3283L21.5794 33.7875H25.9513C28.2377 33.7875 30.2031 33.5466 31.6871 33.0651C33.2514 32.5435 34.6553 31.7008 35.8987 30.5371C36.9015 29.6141 37.7437 28.5709 38.3855 27.4471L37.3428 32.8644C37.3027 33.1053 37.3428 33.3462 37.5031 33.5466C37.6637 33.7473 37.8641 33.8276 38.1047 33.8276H43.9609C44.3621 33.8276 44.683 33.5466 44.7633 33.1856L47.6512 18.3381H51.6621C53.387 18.3381 53.8682 18.659 54.0287 18.8195C54.1489 18.94 54.3898 19.4214 54.1087 20.9062L51.7826 32.9046C51.7424 33.1454 51.7826 33.386 51.9429 33.5868C52.1034 33.7875 52.3039 33.8678 52.5445 33.8678H58.5612C58.922 33.7473 59.2429 33.4663 59.3232 33.1053ZM32.2087 22.6718C31.8477 24.558 31.1658 25.9224 30.163 26.6846C29.1602 27.4471 27.5156 27.8485 25.3497 27.8485H22.7425L24.6277 18.1374H27.9971C30.4838 18.1374 31.4866 18.659 31.8878 19.1005C32.4091 19.7426 32.5296 20.9865 32.2087 22.6718Z" fill="white"/>
<path d="M84.3521 15.2094C82.6275 13.2431 79.94 12.2397 76.2899 12.2397H64.9388C64.5376 12.2397 64.2167 12.5208 64.1364 12.8818L58.8822 39.9685C58.842 40.2091 58.8822 40.45 59.0425 40.6507C59.203 40.8511 59.4035 40.9314 59.6441 40.9314H65.5404C65.9416 40.9314 66.2625 40.6507 66.3425 40.2894L67.626 33.7485H71.9982C74.2843 33.7485 76.2497 33.5077 77.734 33.0262C79.2982 32.5046 80.7019 31.6618 81.9456 30.4982C82.9882 29.535 83.8709 28.4516 84.5126 27.288C85.1544 26.1241 85.6356 24.84 85.9163 23.4355C86.5982 19.9445 86.0769 17.2158 84.3521 15.2094ZM78.2151 22.673C77.8541 24.5592 77.1725 25.9236 76.1697 26.6858C75.1669 27.4483 73.5223 27.8497 71.3564 27.8497H68.7492L70.6344 18.1385H74.0035C76.4906 18.1385 77.4934 18.6602 77.8943 19.1017C78.456 19.7438 78.5762 20.9877 78.2151 22.673Z" fill="white"/>
<path d="M27.9969 17.3346C30.2431 17.3346 31.7271 17.736 32.4893 18.5788C33.2512 19.4213 33.4118 20.8258 33.0106 22.8322C32.6094 24.9189 31.8073 26.4439 30.6442 27.3268C29.4809 28.2094 27.7162 28.651 25.3495 28.651H21.7797L23.9857 17.3346H27.9969ZM13.6375 40.1274H19.5335L20.9375 32.9446H25.9913C28.2375 32.9446 30.0423 32.704 31.4865 32.2222C32.9303 31.7408 34.2138 30.9783 35.4173 29.8548C36.4201 28.9317 37.2222 27.9287 37.8238 26.845C38.4254 25.7617 38.8668 24.5579 39.1074 23.2337C39.7491 20.0232 39.2679 17.5353 37.7037 15.7296C36.1391 13.9239 33.6524 13.041 30.2431 13.041H18.8917L13.6375 40.1274Z" fill="#000004"/>
<path d="M43.4396 5.85864H49.2955L47.8918 13.0415H53.1062C56.3951 13.0415 58.6413 13.6033 59.8847 14.7669C61.1283 15.9308 61.4891 17.7767 61.0079 20.3448L58.5613 32.9451H52.6248L54.9513 20.9467C55.232 19.5824 55.1116 18.6593 54.6705 18.1779C54.2292 17.6964 53.2264 17.4154 51.7424 17.4154H47.0493L44.0412 32.9451H38.1851L43.4396 5.85864Z" fill="#000004"/>
<path d="M74.0035 17.3346C76.2497 17.3346 77.7339 17.736 78.4958 18.5788C79.258 19.4213 79.4186 20.8258 79.0175 22.8322C78.6163 24.9189 77.8142 26.4439 76.6508 27.3268C75.4877 28.2094 73.7227 28.651 71.3564 28.651H67.7866L69.9926 17.3346H74.0035ZM59.644 40.1274H65.5404L66.9441 32.9446H71.9982C74.2444 32.9446 76.0492 32.704 77.4933 32.2222C78.9372 31.7408 80.2207 30.9783 81.4239 29.8548C82.4267 28.9317 83.2291 27.9287 83.8307 26.845C84.4323 25.7617 84.8736 24.5579 85.1142 23.2337C85.756 20.0232 85.2745 17.5353 83.7103 15.7296C82.146 13.9239 79.6592 13.041 76.2497 13.041H64.8986L59.644 40.1274Z" fill="#000004"/>
</svg>
