<svg width="67" height="50" viewBox="0 0 67 50" fill="none" xmlns="http://www.w3.org/2000/svg">
<g clip-path="url(#clip0_2037_1055)">
<path d="M57.3697 28.7239C55.039 28.737 53.0208 29.2968 51.3281 30.1303C50.7031 28.8933 50.0781 27.8124 49.974 27.0053C49.8568 26.0678 49.7136 25.4947 49.8568 24.3751C49.9999 23.2551 50.651 21.6666 50.651 21.5364C50.6378 21.4192 50.5076 20.8463 49.1666 20.8333C47.8256 20.8202 46.6666 21.0937 46.5364 21.4452C46.4062 21.7968 46.1458 22.6041 45.9765 23.4374C45.7421 24.6614 43.2942 28.9973 41.901 31.276C41.4452 30.3905 41.0546 29.6093 40.9764 28.9842C40.8593 28.0468 40.7159 27.4737 40.8593 26.3541C41.0025 25.2342 41.6536 23.6458 41.6536 23.5155C41.6406 23.3984 41.5103 22.8254 40.1693 22.8124C38.8281 22.7994 37.6693 23.0728 37.5391 23.4244C37.4089 23.776 37.2657 24.6093 36.9792 25.4166C36.7057 26.2239 33.4504 33.4635 32.6041 35.3515C32.1744 36.315 31.7969 37.0833 31.5234 37.6041C31.2499 38.1249 31.5103 37.6432 31.4843 37.6952C31.2499 38.1379 31.1197 38.3853 31.1197 38.3853V38.3985C30.9374 38.724 30.7421 39.0364 30.6508 39.0364C30.5857 39.0364 30.4555 38.164 30.6769 36.9662C31.1586 34.453 32.3305 30.5339 32.3176 30.3907C32.3176 30.3256 32.5389 29.6353 31.5623 29.2839C30.6118 28.9323 30.2734 29.5183 30.1951 29.5183C30.117 29.5183 30.0519 29.7266 30.0519 29.7266C30.0519 29.7266 31.1066 25.3127 28.0336 25.3127C26.1066 25.3127 23.4503 27.409 22.1352 29.3231C21.3019 29.7788 19.531 30.7422 17.656 31.771C16.9399 32.1616 16.1977 32.5783 15.4946 32.9559L15.3515 32.7994C11.6275 28.828 4.73951 26.0155 5.02597 20.677C5.13013 18.7369 5.80722 13.6197 18.2553 7.4218C28.4506 2.34367 36.6146 3.7369 38.0338 6.83586C40.052 11.2629 33.6718 19.4921 23.073 20.677C19.0365 21.1327 16.914 19.5702 16.3803 18.9843C15.8204 18.3723 15.7422 18.3463 15.5339 18.4635C15.1954 18.6458 15.4037 19.1926 15.5339 19.5182C15.8464 20.3385 17.1485 21.7968 19.362 22.526C21.302 23.164 26.0417 23.5155 31.7709 21.302C38.1902 18.815 43.2032 11.914 41.7318 6.14575C40.2344 0.273359 30.4948 -1.65373 21.2891 1.6145C15.8072 3.56763 9.86972 6.6145 5.59888 10.6119C0.520757 15.3515 -0.286535 19.4921 0.0520071 21.2109C1.23703 27.3437 9.68742 31.3411 13.0728 34.2968C12.9036 34.3878 12.7473 34.479 12.6041 34.5572C10.9114 35.3904 4.46607 38.7629 2.85149 42.3305C1.02857 46.367 3.13795 49.2708 4.5442 49.6614C8.89315 50.8723 13.3463 48.6978 15.7551 45.1171C18.1508 41.5364 17.8645 36.8879 16.7577 34.7655L16.7185 34.6874L18.0467 33.9062C18.9062 33.3984 19.7525 32.9296 20.4946 32.5258C20.0781 33.6586 19.7784 34.9998 19.6223 36.9529C19.44 39.2447 20.3775 42.2133 21.6145 43.3852C22.1614 43.8929 22.8124 43.906 23.2161 43.906C24.6484 43.906 25.2994 42.721 26.0156 41.3019C26.901 39.5701 27.6822 37.5649 27.6822 37.5649C27.6822 37.5649 26.7057 42.9946 29.3749 42.9946C30.3515 42.9946 31.3281 41.7316 31.7708 41.0805V41.0935C31.7708 41.0935 31.7968 41.0545 31.8489 40.9633C31.9035 40.8826 31.9556 40.8001 32.0051 40.7161V40.69C32.3958 40.0129 33.2682 38.4635 34.5702 35.8984C36.2498 32.5911 37.8645 28.4504 37.8645 28.4504C37.8645 28.4504 38.0208 29.4661 38.5025 31.1327C38.7889 32.1224 39.4139 33.203 39.8956 34.2577C39.505 34.8046 39.2706 35.1172 39.2706 35.1172L39.2836 35.1303C38.9713 35.5469 38.6196 35.9898 38.2551 36.4323C36.927 38.0209 35.3385 39.8309 35.1301 40.3517C34.8827 40.9636 34.9348 41.4193 35.4166 41.784C35.7682 42.0445 36.3932 42.0964 37.0572 42.0445C38.2551 41.9662 39.0885 41.6669 39.5051 41.4844C40.1562 41.2501 40.8984 40.8985 41.6145 40.3777C42.9166 39.4142 43.7109 38.0471 43.6327 36.2241C43.5937 35.2215 43.2682 34.232 42.8645 33.2945C42.9817 33.1252 43.099 32.9558 43.2161 32.7736C45.2734 29.7657 46.8619 26.4585 46.8619 26.4585C46.8619 26.4585 47.0182 27.4741 47.4999 29.1408C47.7472 29.9872 48.2421 30.9118 48.6848 31.8232C46.7577 33.3988 45.5468 35.2217 45.1301 36.4196C44.3619 38.6331 44.9609 39.6357 46.0937 39.8701C46.6014 39.9743 47.3307 39.7399 47.8774 39.5055C48.5545 39.2842 49.3748 38.9064 50.1301 38.3467C51.4322 37.3831 52.6822 36.042 52.6171 34.2321C52.5781 33.3988 52.3567 32.5784 52.0572 31.7972C53.6978 31.1201 55.8201 30.7295 58.5156 31.055C64.3098 31.7321 65.4557 35.3519 65.2344 36.8623C65.0131 38.3728 63.8021 39.206 63.3984 39.4665C62.9947 39.7139 62.8645 39.8051 62.9036 39.9873C62.9557 40.2609 63.138 40.2477 63.4895 40.1958C63.9713 40.1175 66.5364 38.9588 66.6405 36.1725C66.7968 32.5912 63.3984 28.6849 57.3697 28.7239ZM12.6822 43.789C10.7682 45.8853 8.07284 46.6796 6.92701 46.0025C5.69003 45.2864 6.17167 42.2004 8.52857 39.9739C9.96086 38.6197 11.8228 37.3697 13.0468 36.6015C13.3202 36.4322 13.7369 36.185 14.2317 35.8853C14.3098 35.8334 14.3619 35.8072 14.3619 35.8072C14.453 35.7551 14.5572 35.69 14.6614 35.6249C15.5338 38.802 14.7004 41.5885 12.6822 43.789ZM26.6796 34.2708C26.0155 35.8984 24.6093 40.078 23.7629 39.8437C23.0336 39.6484 22.5911 36.4843 23.6196 33.3593C24.1404 31.7836 25.2472 29.9088 25.8982 29.1795C26.9531 28.0076 28.0988 27.617 28.3853 28.0987C28.7239 28.7239 27.0963 33.2551 26.6796 34.2708ZM38.2291 39.7916C37.9426 39.935 37.6822 40.039 37.565 39.961C37.4739 39.9089 37.6821 39.7136 37.6821 39.7136C37.6821 39.7136 39.1274 38.1641 39.7003 37.448C40.0258 37.0314 40.4165 36.5497 40.8331 36.0027V36.1589C40.8333 38.0338 39.0364 39.2838 38.2291 39.7916ZM47.1352 37.7603C46.9269 37.6041 46.9531 37.1223 47.656 35.6119C47.9296 35.0129 48.5545 34.0103 49.6352 33.0598C49.7654 33.4504 49.8437 33.8279 49.8305 34.1796C49.8176 36.5234 48.151 37.3958 47.1352 37.7603Z" fill="#CF649A"/>
</g>
<defs>
<clipPath id="clip0_2037_1055">
<rect width="66.6667" height="50" fill="white"/>
</clipPath>
</defs>
</svg>
