<svg width="50" height="50" viewBox="0 0 50 50" fill="none" xmlns="http://www.w3.org/2000/svg">
<g clip-path="url(#clip0_2037_1201)">
<path d="M24.9 49.9609C38.6519 49.9609 49.8 38.8128 49.8 25.0609C49.8 11.309 38.6519 0.160889 24.9 0.160889C11.1481 0.160889 0 11.309 0 25.0609C0 38.8128 11.1481 49.9609 24.9 49.9609Z" fill="#1A171B"/>
<path d="M35.7365 9.36163C33.2103 9.44975 31.0055 10.842 29.3643 12.7679C27.547 14.8795 26.3379 17.3841 25.4668 19.9406C23.9086 18.6635 22.7064 17.0102 20.2065 16.2893C18.2742 15.7345 16.2447 15.9636 14.3784 17.3541C13.4942 18.0146 12.8851 19.0129 12.5955 19.9513C11.8456 22.3902 13.3839 24.5605 14.0827 25.3398L15.6103 26.977C15.9253 27.298 16.6838 28.1354 16.313 29.3361C15.9122 30.6414 14.3385 31.4866 12.7243 30.9886C12.0033 30.7688 10.9676 30.2317 11.1995 29.4754C11.2954 29.1661 11.5168 28.9346 11.6355 28.6671C11.7444 28.4374 11.7963 28.265 11.8294 28.1638C12.1243 27.2009 11.7215 25.9481 10.69 25.6301C9.7279 25.3352 8.74337 25.5688 8.3617 26.8078C7.92887 28.2152 8.60234 30.7696 12.2101 31.8819C16.4371 33.1806 20.0128 30.8791 20.5199 27.8773C20.8393 25.9972 19.9904 24.6004 18.4351 22.8039L17.1679 21.4025C16.4003 20.6357 16.1367 19.3286 16.9312 18.3241C17.6016 17.4767 18.5563 17.1151 20.12 17.5403C22.4024 18.1601 23.4198 19.7438 25.1175 21.0211C24.4166 23.3202 23.9584 25.6279 23.5437 27.6974L23.291 29.2402C22.0775 35.6054 21.1512 39.1006 18.7438 41.1072C18.2589 41.4521 17.5656 41.9684 16.5205 42.0044C15.9727 42.0213 15.7957 41.6445 15.7881 41.4803C15.7751 41.0957 16.0992 40.9195 16.3145 40.7463C16.6363 40.5709 17.1228 40.2798 17.0897 39.3475C17.0547 38.2456 16.142 37.2903 14.8227 37.3341C13.8345 37.3677 12.3282 38.2978 12.3848 40.0001C12.4437 41.7585 14.0827 43.0762 16.5536 42.9928C17.8745 42.9474 20.824 42.4098 23.7308 38.9543C27.1141 34.9933 28.0603 30.4523 28.7721 27.1287L29.5666 22.7409C30.008 22.7938 30.4799 22.829 30.9933 22.8413C35.207 22.9302 37.3148 20.7475 37.3461 19.16C37.3669 18.1992 36.7156 17.2538 35.8038 17.2752C35.1512 17.2936 34.3312 17.728 34.1344 18.6307C33.9422 19.5162 35.4753 20.3153 34.277 21.0915C33.4257 21.6424 31.8996 22.0307 29.7504 21.7151L30.1412 19.5553C30.9388 15.4594 31.9225 10.4212 35.6544 10.2987C35.9264 10.2849 36.9216 10.3109 36.9448 10.969C36.9516 11.1889 36.8971 11.2449 36.6397 11.7481C36.3777 12.1405 36.2789 12.4745 36.2911 12.8583C36.3271 13.9041 37.1224 14.5914 38.2724 14.55C39.8123 14.5002 40.2553 13.0009 40.23 12.231C40.1678 10.4218 38.2612 9.27895 35.7365 9.36163Z" fill="white"/>
</g>
<defs>
<clipPath id="clip0_2037_1201">
<rect width="49.8" height="50" fill="white"/>
</clipPath>
</defs>
</svg>
